<svg data-v-3982b337="" width="21" height="20" viewBox="0 0 21 20" fill="none"
    xmlns="http://www.w3.org/2000/svg" class="mx-auto tw-pulse-animation">
    <path class="fill-pageTheme"
        d="M10.1208 19.3216L8.65325 18.0059C6.94959 16.4709 5.54111 15.1468 4.42783 14.0335C3.31455 12.9202 2.42898 11.9208 1.77113 11.0352C1.11328 10.1497 0.653632 9.33578 0.392179 8.59359C0.130726 7.8514 0 7.09234 0 6.31642C0 4.73083 0.53134 3.4067 1.59402 2.34402C2.6567 1.28134 3.98083 0.75 5.56642 0.75C6.44355 0.75 7.27851 0.935547 8.0713 1.30664C8.86409 1.67774 9.54725 2.20064 10.1208 2.87536C10.6943 2.20064 11.3774 1.67774 12.1702 1.30664C12.963 0.935547 13.798 0.75 14.6751 0.75C16.2607 0.75 17.5848 1.28134 18.6475 2.34402C19.7102 3.4067 20.2415 4.73083 20.2415 6.31642C20.2415 7.09234 20.1108 7.8514 19.8493 8.59359C19.5879 9.33578 19.1282 10.1497 18.4704 11.0352C17.8125 11.9208 16.927 12.9202 15.8137 14.0335C14.7004 15.1468 13.2919 16.4709 11.5883 18.0059L10.1208 19.3216Z"
        fill="rgb(239 68 68)"></path>
</svg>